<svg xmlns="http://www.w3.org/2000/svg" viewBox="0 0 2067.66 2067.66"><defs><style>.cls-1{fill:#fff;}.cls-2{stroke:#000;stroke-miterlimit:10;stroke-width:1.87px;}.cls-3{fill:#0c682f;}.cls-4{fill:#010101;}.cls-5{fill:#bb1818;}</style></defs><g id="Layer_2" data-name="Layer 2"><g id="logo_black" data-name="logo black"><g id="badge"><circle class="cls-1" cx="1033.83" cy="1033.83" r="1033.83"/><g id="minaret"><ellipse cx="1032.43" cy="1036.51" rx="889.55" ry="872.81"/><ellipse class="cls-1" cx="1030.54" cy="1036.51" rx="722.33" ry="708.74"/><path class="cls-2" d="M814.61,1832.74a635.33,635.33,0,0,1-110-37.83c-211.42-94.37-359.71-249.3-442.54-465.24-44.06-114.86-58.74-234.42-47.6-357,15.77-173.58,80.25-327,194.28-458.76,127.89-147.76,288.62-239.77,481.77-272,205.7-34.36,398.66,2.87,574.57,115.2C1654.93,478.32,1776.36,650,1825.2,870c86.63,390.27-120.92,778.43-485.68,929.78-27.67,11.49-56.07,20.88-84.69,29.79-12.44,3.86-13.88.25-13.94-10.93-.32-64.84-1.56-129.68-1.79-194.52,0-10.78-3.26-13.3-13.63-13.27q-197.51.5-395-.07c-11.73,0-13.72,3.77-13.77,14.39-.29,64.84-1.32,129.68-2.1,194.52C814.56,1823.67,814.61,1827.64,814.61,1832.74ZM1028.32,365.2c-8.69,12.37-16.76,25.55-13.87,37.14,5.84,23.48-3.31,46.57,2.16,69.61,1.92,8.1.39,16.35-5.48,23.86-4.94,6.33-4.32,14.88-.13,21.65,3.74,6,2.21,8.94-2.78,13-13.75,11.07-22.48,25.45-24.53,43.15-.76,6.55-4,8.55-9.8,10.43C863.76,619.57,806.38,718.52,830.42,830.4c1.59,7.4,4,10.37,12.05,10.35q185.34-.69,370.69-.64c7.4,0,10.51-2.6,11.27-9.52,1.78-16.42,4.83-32.78,5.43-49.24,1.88-52-8.17-100.56-44.66-140.47-27.48-30.06-62.83-46.66-101.27-57.48-7.06-2-11.2-3.78-12.33-12.49-2-15.42-9.82-28.7-21.85-38.9-5.43-4.61-9.48-8-4.3-16.06a18.18,18.18,0,0,0-1.93-22.59c-5.83-6.1-4.46-12.88-5.79-19.7-1.9-9.72,6.68-18.26,3-27.29-4.35-10.55-5-22.23-2-31.5C1044.81,396.07,1036,382.23,1028.32,365.2Zm-1.53,1224.07c91.36,0,182.72-.17,274.08.23,10.59,0,14.69-1.83,14.55-13.61-.65-54.56-.34-109.12-.23-163.68,0-7.52.75-13.46-10.58-13.59-11.11-.13-13.17,4.4-11.79,13.41s-2.39,11.16-11.08,11.15q-253.92-.36-507.85,0c-9,0-12.19-2.85-10.85-11.37,1.51-9.59-1.7-13.17-12.22-13.18-11,0-11,5.37-10.93,13.3.18,54.56.43,109.12-.18,163.67-.13,11.46,3.48,13.94,14.35,13.89C845,1589.09,935.88,1589.27,1026.79,1589.27Zm1.24-456.44c64.44,0,128.89-.2,193.33.22,9.75.06,13-2.09,12.86-12.47-.83-50-1-100.11-.88-150.16,0-9-2.14-12.31-11.85-12.29q-194,.47-388,0c-8.93,0-11.12,2.71-11.12,11.31,0,50-.27,100.11-1.15,150.15-.18,10.6,2.9,13.53,13.48,13.46C899.13,1132.6,963.58,1132.83,1028,1132.83Zm.38,78.22c-64.93,0-129.86.21-194.79-.22-10.2-.07-13.76,2.19-13.69,13.14.33,50.52-.27,101-.59,151.58-.17,26.34-.22,25.85,26.13,25.89,9.44,0,11.25-3.61,11.08-11.79-.4-18.33,1.43-36.83-.44-55-4-38.78,19.11-64.47,41.11-91.06,2.16-2.61,4.62-4.79,7.53-1.09,19,24,42.18,45.77,41.65,80-.27,17.88,0,35.77,0,53.65,0,25.69,0,25.21,25.45,25.27,9.26,0,11.42-3.31,11.21-11.68-.45-17.87,1.5-36-.47-53.62-4.37-39.27,18.59-65.53,41.11-92.37,2.06-2.46,4.48-5.22,7.48-1.43,18.69,23.62,42,44.78,42,78.42q0,27.49,0,55c0,26.45,0,26,26.54,25.65,8.7-.12,10.45-3.41,10.27-11.11-.43-17.88,1.55-36-.48-53.62-4.5-39.23,18.09-65.67,40.66-92.53,2.47-3,5-5.56,8.49-1.19,20.22,25.37,44.19,48.7,41.66,85.43-1.14,16.47-.19,33.08-.19,49.62,0,23.35,0,22.72,23.42,23.46,10.89.34,13.35-3.19,13.17-13.51q-1.41-81.81-1.44-163.65c0-10.13-2.51-13.61-13.37-13.52C1157.38,1211.32,1092.89,1211.05,1028.41,1211.05Zm-2-276.36q137.73,0,275.47-.1c4.2,0,9.37,2.11,12.49-2.3,5.49-7.74-1-30.27-9.76-34.56-21.26-10.45-42.63-20.69-63.78-31.38a40.94,40.94,0,0,0-19.23-4.54q-194.18.18-388.34.14c-4,0-8.45-.29-11.84,1.32-25.42,12.13-51,24-75.74,37.44-11.9,6.47-5,19.51-5.07,29.36,0,8,8.45,4.43,13,4.44Q890.08,934.86,1026.46,934.69Zm.34,262.8q110.13,0,220.24,0c10.35,0,20.69-2.5,23.75-12.89,5.42-18.43-.24-32.32-13.14-36.73-4.48-1.53-9.65-1.4-14.5-1.41q-165.18-.1-330.36,0c-34.91,0-69.83.09-104.74-.06-9.56,0-19.07,2.51-22.77,10.91-10.34,23.49,1.28,40.2,26.66,40.21Q919.37,1197.53,1026.8,1197.49Z"/><path d="M1026.1,1111.84c-36.35-.64-65.5-31.36-64.63-68.13a66.12,66.12,0,0,1,68.12-64.57c36.83,1,65.31,31,64.68,68.08C1093.65,1083.54,1063.1,1112.49,1026.1,1111.84Zm1.06-111.45c-.82,4.79-1.8,9.56-2.41,14.37-.67,5.29-.8,10.66-1.5,15.94-2.42,18.21,6.37,30.08,28.14,34.56C1030.18,1046.72,1032.45,1022.36,1027.16,1000.39Z"/><g id="moon"><path class="cls-1" d="M461.52,1145.66A101.48,101.48,0,1,1,563,1044C563.13,1099.87,517.58,1145.51,461.52,1145.66Z"/></g><g id="crescent"><path class="cls-1" d="M1653.25,1090.05a77.17,77.17,0,0,1-12.76,9.65c-28.27,16.82-57.94,19.33-88.22,6.51-36.09-15.3-57-50.29-56.57-85.11.28-23.83,8.19-44.64,24.39-62.21,16.52-17.93,37.3-28,61.93-30.16,3-.26,6-.51,8.93-.64,1.23-.05,3-.21,3.34,1.16.35,1.6-1.58,1.67-2.67,2.12-20.4,8.5-35.42,22.58-44.78,42.23-19.23,40.41-2.34,88,38.46,108.76,20,10.19,41.09,12.32,63,7.61C1649.66,1089.68,1651,1089,1653.25,1090.05Z"/><path class="cls-1" d="M1594,990c1.88-2.09,4.26-2.24,6.32-2.9,6.48-2.08,13-4.09,19.55-5.92,2.79-.78,3.85-1.93,3.5-5-.88-7.75-1.35-15.55-1.91-23.34-.07-1-.63-2.5.88-2.84,1.05-.24,1.56,1,2.12,1.8,4.55,6.24,9.19,12.42,13.58,18.76,1.74,2.52,3.38,3.15,6.3,1.83,7.1-3.2,14.34-6.11,21.52-9.13,1.11-.46,2.4-1.79,3.41-.45s-.49,2.34-1.2,3.28c-4.74,6.27-9.47,12.56-14.39,18.7-1.73,2.17-1.71,3.55.26,5.65,5.57,6,10.83,12.19,16.19,18.33.62.71,1.71,1.47,1,2.48s-1.86.22-2.75-.07c-7.28-2.37-14.64-4.56-21.78-7.3-3.94-1.51-5.89-.46-7.82,2.94-3.59,6.33-7.57,12.45-11.45,18.62-.61,1-.94,2.75-2.57,2.18-1.21-.42-.75-2-.75-3,0-7.25-.12-14.51.12-21.76.12-3.63-.9-5.65-4.82-6.44-7.65-1.53-15.22-3.46-22.81-5.27A16.16,16.16,0,0,1,1594,990Z"/></g></g><g id="logo"><g id="LogoDesign"><path class="cls-3" d="M1940.58,1458.13h-92.24c-153.23,293.55-460.44,494-814.51,494s-661.26-200.4-814.49-493.94H127.1c159.69,340.65,505.63,576.62,906.73,576.62S1780.89,1798.8,1940.58,1458.13Z"/><path class="cls-4" d="M1033.83,115.56c351.71,0,657.18,197.76,811.42,488.12h92.59C1777,266.15,1432.65,32.89,1033.83,32.89s-743.08,233.24-904,570.73h92.59C376.7,313.29,682.15,115.56,1033.83,115.56Z"/><path class="cls-5" d="M1952.1,1033.83a916.27,916.27,0,0,1-56.38,317.47h87.62a1005.38,1005.38,0,0,0-2-640.86h-87.88A916.25,916.25,0,0,1,1952.1,1033.83Z"/><path class="cls-5" d="M115.56,1033.83a916,916,0,0,1,58.64-323.4H86.31a1005.57,1005.57,0,0,0-2,640.86h87.62A916.5,916.5,0,0,1,115.56,1033.83Z"/></g></g></g></g></g></svg>